<svg xmlns="http://www.w3.org/2000/svg" viewBox="0 0 177.15 47.69"><defs><style>.cls-1{font-size:9px;font-family:THEJung130-KSCpc-EUC-H, THEJung130;}.cls-2{fill:none;stroke:#000;stroke-miterlimit:10;stroke-width:5px;}.cls-3{fill:#f15a24;}</style></defs><title>로고_진짜최종_1</title><g id="레이어_2" data-name="레이어 2"><g id="레이어_4" data-name="레이어 4"><text class="cls-1" transform="translate(112.25 31.98)">빈 마음으로<tspan x="0" y="10.8">최선을 다하다.</tspan></text><path d="M43.42,10v6H34.16V32.81H44.21a5.94,5.94,0,0,1-5.87,6H26.81V10ZM56.78,21.15h3.93v6H56.78v8.52A4.29,4.29,0,0,1,52.54,40H49.43V9.58h7.35Z"/><path d="M101.06,9.58H93.93a.09.09,0,0,0-.09.09V30.51a.1.1,0,0,0,.09.1h3.44a3.83,3.83,0,0,0,3.78-3.87V9.67A.09.09,0,0,0,101.06,9.58Z"/><polygon points="81.26 22.5 81.26 19.56 81.26 19.56 81.26 22.5 81.26 22.5"/><path d="M81.26,19.56V13.37m-2.73,0v-3.3a.09.09,0,0,0-.09-.09H71.27a.09.09,0,0,0-.09.09V28.51a.09.09,0,0,0,.09.09H83.83a4.8,4.8,0,0,0,4.74-4.86V10.07a.09.09,0,0,0-.09-.09H81.36a.09.09,0,0,0-.1.09v3.3h0v6.19h0V22.5h0v0a.09.09,0,0,1-.09.08H78.62a.09.09,0,0,1-.09-.09V19.56m0,.38v0Z"/><path d="M79.36,36.68a.09.09,0,0,1-.09-.09V33.37a.09.09,0,0,0-.09-.09H72.05a.09.09,0,0,0-.09.09v9.22a.09.09,0,0,0,.09.1H95.38a5.85,5.85,0,0,0,5.77-5.92.09.09,0,0,0-.09-.09Z"/><line class="cls-2" x1="75.15" y1="16.69" x2="86.15" y2="16.69"/><path class="cls-3" d="M2.2,2.76a8.59,8.59,0,0,0,.56,12,8.46,8.46,0,0,0,4.07,2,8.94,8.94,0,0,0,2,.14h0l8.74.56a.88.88,0,0,0,.94-.93L17,8.5V8.44l-.08-1.07v-.1A8.49,8.49,0,0,0,2.2,2.76Zm9.17,3.8h0a1.58,1.58,0,0,1,.21.38,2.91,2.91,0,0,1,.23.55,4.1,4.1,0,0,1,.1.48,2.24,2.24,0,0,1,0,.52,2.19,2.19,0,0,1,0,.51,3.39,3.39,0,0,1-.1.48,2.75,2.75,0,0,1-.23.56,2.08,2.08,0,0,1-.21.38h0a3.8,3.8,0,0,1-1,1,3.59,3.59,0,0,1-.38.21,5.31,5.31,0,0,1-.55.23L9,12a3,3,0,0,1-.52,0,3,3,0,0,1-.52,0l-.48-.1a5.31,5.31,0,0,1-.55-.23l-.38-.21a3.8,3.8,0,0,1-1-1h0a2.93,2.93,0,0,1-.21-.38,4.68,4.68,0,0,1-.23-.56A3.39,3.39,0,0,1,5,9,2.19,2.19,0,0,1,5,8.5,2.24,2.24,0,0,1,5,8a4.1,4.1,0,0,1,.1-.48A5.31,5.31,0,0,1,5.33,7a2,2,0,0,1,.21-.38h0a3.65,3.65,0,0,1,1-1,2.08,2.08,0,0,1,.38-.21,2.91,2.91,0,0,1,.55-.23A4.1,4.1,0,0,1,7.94,5,3.4,3.4,0,0,1,9,5a4.1,4.1,0,0,1,.48.1,2.91,2.91,0,0,1,.55.23,1.8,1.8,0,0,1,.38.21A3.65,3.65,0,0,1,11.37,6.56Z"/></g></g></svg>