<svg xmlns="http://www.w3.org/2000/svg" viewBox="0 0 17 21.69"><defs><style>.cls-1{fill:#f15a24;}</style></defs><title>지도</title><g id="레이어_2" data-name="레이어 2"><g id="레이어_4" data-name="레이어 4"><path class="cls-1" d="M8.58,0A8.6,8.6,0,0,0,0,8.48a8.51,8.51,0,0,0,1.21,4.39,9.43,9.43,0,0,0,1.23,1.58l0,0L7.9,21.35a.88.88,0,0,0,1.32.07l5-6.61,0,0L15,14l.07-.07A8.5,8.5,0,0,0,8.58,0Zm3.31,9.37h0a3.93,3.93,0,0,1-.14.41,3.82,3.82,0,0,1-.26.54c-.09.13-.19.27-.29.39a2.53,2.53,0,0,1-.36.37,2.06,2.06,0,0,1-.41.32,2.58,2.58,0,0,1-.42.25,4.18,4.18,0,0,1-.56.2A2.07,2.07,0,0,1,9,12H9a4,4,0,0,1-1.39-.07,3.93,3.93,0,0,1-.41-.14,3.82,3.82,0,0,1-.54-.26c-.13-.09-.27-.19-.39-.29a2.53,2.53,0,0,1-.37-.36,2.4,2.4,0,0,1-.32-.41A2.67,2.67,0,0,1,5.34,10a3.38,3.38,0,0,1-.2-.56A1.84,1.84,0,0,1,5,9a3.86,3.86,0,0,1,.07-1.39h0a3.26,3.26,0,0,1,.14-.41,3.36,3.36,0,0,1,.26-.54c.09-.14.19-.27.29-.4a4.17,4.17,0,0,1,.36-.37,4.12,4.12,0,0,1,.41-.32L7,5.34a3,3,0,0,1,.57-.21A2.59,2.59,0,0,1,8,5H8a3.78,3.78,0,0,1,1.39.07,2.19,2.19,0,0,1,.41.14,3.82,3.82,0,0,1,.54.26,3.69,3.69,0,0,1,.4.29,3.12,3.12,0,0,1,.37.36,3.22,3.22,0,0,1,.32.41,3.5,3.5,0,0,1,.24.42,4.25,4.25,0,0,1,.21.56A3,3,0,0,1,12,8,3.66,3.66,0,0,1,11.89,9.37Z"/></g></g></svg>